<svg xmlns="http://www.w3.org/2000/svg" viewBox="0 0 120 120" width="120" height="120">
  <g>
    <polygon points="0.00,-30.00 4.97,-12.01 21.21,-21.21 12.01,-4.97 30.00,0.00 12.01,4.97 21.21,21.21 4.97,12.01 0.00,30.00 -4.97,12.01 -21.21,21.21 -12.01,4.97 -30.00,0.00 -12.01,-4.97 -21.21,-21.21 -4.97,-12.01" fill="none" stroke="#C4943F" stroke-width="2"></polygon><polygon points="120.00,-30.00 124.97,-12.01 141.21,-21.21 132.01,-4.97 150.00,0.00 132.01,4.97 141.21,21.21 124.97,12.01 120.00,30.00 115.03,12.01 98.79,21.21 107.99,4.97 90.00,0.00 107.99,-4.97 98.79,-21.21 115.03,-12.01" fill="none" stroke="#C4943F" stroke-width="2"></polygon><polygon points="0.00,90.00 4.97,107.99 21.21,98.79 12.01,115.03 30.00,120.00 12.01,124.97 21.21,141.21 4.97,132.01 0.00,150.00 -4.97,132.01 -21.21,141.21 -12.01,124.97 -30.00,120.00 -12.01,115.03 -21.21,98.79 -4.97,107.99" fill="none" stroke="#C4943F" stroke-width="2"></polygon><polygon points="120.00,90.00 124.97,107.99 141.21,98.79 132.01,115.03 150.00,120.00 132.01,124.97 141.21,141.21 124.97,132.01 120.00,150.00 115.03,132.01 98.79,141.21 107.99,124.97 90.00,120.00 107.99,115.03 98.79,98.79 115.03,107.99" fill="none" stroke="#C4943F" stroke-width="2"></polygon>
    <polygon points="60.00,30.00 64.97,47.99 81.21,38.79 72.01,55.03 90.00,60.00 72.01,64.97 81.21,81.21 64.97,72.01 60.00,90.00 55.03,72.01 38.79,81.21 47.99,64.97 30.00,60.00 47.99,55.03 38.79,38.79 55.03,47.99" fill="none" stroke="#C4943F" stroke-width="2"></polygon>
    <polygon points="0.00,30.00 4.97,47.99 21.21,38.79 12.01,55.03 30.00,60.00 12.01,64.97 21.21,81.21 4.97,72.01 0.00,90.00 -4.97,72.01 -21.21,81.21 -12.01,64.97 -30.00,60.00 -12.01,55.03 -21.21,38.79 -4.97,47.99" fill="none" stroke="#C4943F" stroke-width="2"></polygon><polygon points="120.00,30.00 124.97,47.99 141.21,38.79 132.01,55.03 150.00,60.00 132.01,64.97 141.21,81.21 124.97,72.01 120.00,90.00 115.03,72.01 98.79,81.21 107.99,64.97 90.00,60.00 107.99,55.03 98.79,38.79 115.03,47.99" fill="none" stroke="#C4943F" stroke-width="2"></polygon><polygon points="60.00,-30.00 64.97,-12.01 81.21,-21.21 72.01,-4.97 90.00,0.00 72.01,4.97 81.21,21.21 64.97,12.01 60.00,30.00 55.03,12.01 38.79,21.21 47.99,4.97 30.00,0.00 47.99,-4.97 38.79,-21.21 55.03,-12.01" fill="none" stroke="#C4943F" stroke-width="2"></polygon><polygon points="60.00,90.00 64.97,107.99 81.21,98.79 72.01,115.03 90.00,120.00 72.01,124.97 81.21,141.21 64.97,132.01 60.00,150.00 55.03,132.01 38.79,141.21 47.99,124.97 30.00,120.00 47.99,115.03 38.79,98.79 55.03,107.99" fill="none" stroke="#C4943F" stroke-width="2"></polygon>
    <g fill="none" stroke="#C4943F" stroke-width="2" opacity="0.85">
      <rect x="45" y="45" width="30" height="30" transform="rotate(45 60 60)"></rect>
      <rect x="-15" y="-15" width="30" height="30" transform="rotate(45 0 0)"></rect>
      <rect x="105" y="-15" width="30" height="30" transform="rotate(45 120 0)"></rect>
      <rect x="-15" y="105" width="30" height="30" transform="rotate(45 0 120)"></rect>
      <rect x="105" y="105" width="30" height="30" transform="rotate(45 120 120)"></rect>
    </g>
  </g>
</svg>