<svg xmlns="http://www.w3.org/2000/svg" viewBox="0 0 100 100" fill="none">
  <polygon points="50.00,2.00 58.04,30.60 83.94,16.06 69.40,41.96 98.00,50.00 69.40,58.04 83.94,83.94 58.04,69.40 50.00,98.00 41.96,69.40 16.06,83.94 30.60,58.04 2.00,50.00 30.60,41.96 16.06,16.06 41.96,30.60" fill="#C4943F"></polygon>
  <polygon points="50.00,20.00 54.97,37.99 71.21,28.79 62.01,45.03 80.00,50.00 62.01,54.97 71.21,71.21 54.97,62.01 50.00,80.00 45.03,62.01 28.79,71.21 37.99,54.97 20.00,50.00 37.99,45.03 28.79,28.79 45.03,37.99" fill="#FEF8EC" opacity="0.0"></polygon>
</svg>